<mxfile host="app.diagrams.net" modified="2024-04-25T12:16:30.093Z" agent="Mozilla/5.0 (Windows NT 10.0; Win64; x64) AppleWebKit/537.36 (KHTML, like Gecko) Chrome/124.0.0.0 Safari/537.36" version="24.3.0" etag="rDSuH8YPaZr9QhWRNrYp" type="github">
  <diagram name="Страница — 1" id="OVc6Xa9mkI6XaBKZrF49">
    <mxGraphModel>
      <root>
        <mxCell id="0" />
        <mxCell id="1" parent="0" />
      </root>
    </mxGraphModel>
  </diagram>
</mxfile>
